<?xml version="1.0" encoding="UTF-8" standalone="no"?>
<!-- Created with Inkscape (http://www.inkscape.org/) -->

<svg
   width="44.781849mm"
   height="20.591064mm"
   viewBox="0 0 44.781849 20.591064"
   version="1.1"
   id="svg5"
   inkscape:version="1.1.1 (3bf5ae0d25, 2021-09-20)"
   sodipodi:docname="logo.svg"
   xmlns:inkscape="http://www.inkscape.org/namespaces/inkscape"
   xmlns:sodipodi="http://sodipodi.sourceforge.net/DTD/sodipodi-0.dtd"
   xmlns="http://www.w3.org/2000/svg"
   xmlns:svg="http://www.w3.org/2000/svg">
  <sodipodi:namedview
     id="namedview7"
     pagecolor="#ffffff"
     bordercolor="#666666"
     borderopacity="1.0"
     inkscape:pageshadow="2"
     inkscape:pageopacity="0.0"
     inkscape:pagecheckerboard="0"
     inkscape:document-units="mm"
     showgrid="false"
     inkscape:zoom="2"
     inkscape:cx="20.25"
     inkscape:cy="4.5"
     inkscape:window-width="1132"
     inkscape:window-height="1032"
     inkscape:window-x="32"
     inkscape:window-y="32"
     inkscape:window-maximized="0"
     inkscape:current-layer="layer1"
     inkscape:object-nodes="false"
     showguides="false"
     fit-margin-top="0"
     fit-margin-left="0"
     fit-margin-right="0"
     fit-margin-bottom="0" />
  <defs
     id="defs2">
    <rect
       x="485.5405"
       y="152.21928"
       width="294.29062"
       height="128.02032"
       id="rect7018" />
    <clipPath
       clipPathUnits="userSpaceOnUse"
       id="clipPath462">
      <g
         inkscape:label="Clip"
         id="use464">
        <path
           style="fill:none;stroke:#000000;stroke-width:0.264583px;stroke-linecap:butt;stroke-linejoin:miter;stroke-opacity:1"
           d="m -436.20584,9.9137691 c 6.33222,-7.3840471 9.71098,-16.9435201 14.04451,-25.6105701 1.7317,-3.463414 -0.04,-2.78157 1.6523,-7.435327 0.38385,-1.05562 5.4416,-8.703523 5.78302,-9.087621 3.19627,-3.595806 2.50746,-1.666801 5.78305,-3.30459 1.26529,-0.632653 0.64606,-1.472208 1.65227,-2.478442 0.67689,-0.67687 5.27278,-1.397156 5.78305,-1.652294 4.51223,-2.256123 -1.74654,-1.345501 4.13073,-3.30459 0.78375,-0.261252 1.66354,0.135819 2.47846,0 3.43821,-0.573037 1.43393,-0.753364 4.13073,-1.652296 1.70648,-0.568828 4.01529,0.353546 5.78302,0 1.60941,-0.321882 9.40075,-3.952513 10.73991,-4.956885 4.62196,-3.466457 8.50739,-9.150614 11.56608,-14.044506 1.83359,-2.933766 3.24376,-7.374506 5.78302,-9.913768 0.43543,-0.435417 1.21688,-0.390729 1.6523,-0.826148 0.7021,-0.702091 0.87696,-1.85818 1.6523,-2.478442 0.68,-0.544007 1.69955,-0.436698 2.47843,-0.826146 1.08823,-0.544105 2.21639,-1.934337 3.30459,-2.478444 1.80078,-0.900388 6.27047,-2.508179 8.26148,-3.304588 1.66796,-0.667187 4.17333,-0.686467 5.78303,-1.652297 1.00187,-0.601109 1.43346,-1.95594 2.47846,-2.478442 4.98948,-2.49474 10.40817,-5.262657 14.87064,-9.087619 3.03064,-2.597687 4.53609,-6.026244 8.26148,-8.261474 0.47228,-0.28337 1.15967,0.24631 1.6523,0 2.13373,-1.06687 3.67715,-3.90395 5.78302,-4.95689 1.14379,-0.57189 5.02171,-1.42013 6.60919,-2.47844 0.64807,-0.43205 0.95562,-1.30396 1.65229,-1.65229 1.82713,-0.91358 2.32548,0.9791 4.13073,-0.82615 0.3746,-0.37458 4.08175,-4.92424 4.13073,-4.95689 2.98286,-1.98856 2.07243,0.60903 4.13075,-2.47844 0.15275,-0.22913 -0.19473,-0.63142 0,-0.82615 1.58271,-1.58271 6.77,-1.7059 9.08762,-2.47844 5.05161,-1.68387 9.64814,-3.65125 14.87065,-4.95688 1.36987,-0.34247 4.67334,-0.2713 5.78303,-0.82615 1.04501,-0.5225 1.43344,-1.95594 2.47845,-2.47844 0.73892,-0.36947 1.66833,0.16202 2.47844,0 2.41932,-0.48386 6.36053,-2.86344 8.26147,-4.13074 1.74589,-1.16393 15.22604,-17.88218 16.52295,-19.82754 1.5998,-2.39969 0.0273,0.14883 1.6523,-0.82614 2.44019,0.19291 2.66357,-2.32649 4.13073,-3.30459 2.73878,-1.82585 6.04584,-2.08788 9.08762,-3.30459 3.3891,-1.35564 6.42233,-3.95933 9.91377,-4.95689 2.4032,-0.68662 3.97526,-0.7484 5.78303,-1.65229 1.44876,-0.72438 2.64024,-2.55934 4.13074,-3.30459 1.36468,-0.68234 1.59205,0.45826 3.30459,-0.82615 2.53848,-1.90386 5.73261,-4.11813 9.08762,-4.95688 1.29592,-0.32398 2.83482,0.32398 4.13074,0 6.58364,-1.64591 13.2611,-2.48913 19.82754,-4.13074 0.37782,-0.0945 0.44832,-0.73169 0.82615,-0.82615 2.02697,-0.50674 4.63098,0.6594 6.60917,0 1.94571,-0.64857 4.33898,-2.0244 6.60918,-2.47844 0.54007,-0.10801 1.19403,0.30551 1.6523,0 1.29617,-0.86411 1.95204,-2.53171 3.30459,-3.30459 0.71729,-0.40988 1.69469,0.26125 2.47844,0 0.94195,-0.31399 1.57111,-1.24904 2.47844,-1.6523 1.59156,-0.70735 3.33978,-1.00545 4.95689,-1.65229 4.00212,-1.60085 7.642,-3.99937 11.56606,-5.78303 6.20332,-2.81969 13.390489,-3.63735 19.82754,-5.78303 2.344293,-0.78143 7.93461,-4.56106 9.913768,-4.95689 9.546333,-1.90927 7.436045,-2.47868 17.349096,-5.78303 1.847321,-0.61577 3.88565,-0.38829 5.783033,-0.82615 7.25238,-1.67362 14.076854,-3.02029 21.479832,-4.13073 5.19747,5.16875 6.553822,-1.91846 9.913769,-2.47845 13.747405,-2.29123 28.1699387,-3.30459 42.133518,-3.30459 12.468749,0 23.720314,-0.68074 36.350485,-1.65229 6.839085,-0.52608 13.820627,0.59418 20.653687,0 3.879855,-0.33738 7.689109,-1.28306 11.566062,-1.6523 7.532309,-0.71736 15.56925,0 23.13213,0 7.20494,0 20.47385,-1.19806 27.26286,0 2.83133,0.49965 5.45487,1.85475 8.26148,2.47845 9.22307,2.04957 19.49996,2.4079 28.91516,3.30459 20.08794,1.91313 40.16058,3.86779 60.30876,4.95688 8.52884,0.46102 17.10435,0.0529 25.61057,0.82615 2.26153,0.20559 4.37495,1.24607 6.60917,1.65229 2.65057,0.48192 2.89153,-0.64256 5.78303,0 6.60117,1.46693 10.8603,7.50411 16.52296,10.73992 1.99374,1.13929 6.65909,2.23634 8.26148,3.30459 9.74865,6.4991 -2.17537,2.25427 9.91375,7.43532 2.37416,1.0175 6.81136,1.35351 9.08762,3.30459 1.04545,0.89609 1.50482,2.33097 2.47846,3.30459 2.06994,2.06996 4.61724,3.63789 6.60919,5.78304 4.80716,5.17695 7.88894,12.61184 13.21834,17.34909 0.37124,0.33 8.33742,6.39484 9.08762,6.60918 1.05915,0.30262 2.21414,-0.15578 3.30459,0 4.96229,0.7089 16.18181,4.16028 19.0014,8.26148 6.08994,8.85808 9.10722,20.08228 9.91378,30.56745 0.27455,3.56943 -0.7021,7.22947 0,10.73992 3.63775,18.188842 2.47843,-0.8587 2.47843,22.305978 0,4.021354 2.16984,9.25681 4.95689,12.39221 5.34646,6.014789 9.61329,4.055446 12.39221,12.39221 0.35904,1.077166 1.26285,2.256502 0.82613,3.30459 -0.81002,1.944058 -9.41874,11.985265 -10.73991,13.218359 -2.01319,1.878986 -4.74835,2.926892 -6.60919,4.956886 -1.24828,1.36176 -1.26196,3.566631 -2.47843,4.956884 -3.13798,3.586263 -16.59279,15.895997 -20.65369,19.00139 -4.70337,3.596693 -15.6968,7.906511 -15.6968,15.6968008 0,0.097194 2.35696,-0.1214923 2.47845,0 0.59751,0.5975204 0.44432,6.706379 0,8.2614742 -0.33835,1.1841628 -1.29011,2.1275021 -1.65229,3.3045897 -1.54043,5.0063593 -1.65902,10.7600753 -3.3046,15.6968003 -1.82472,5.474203 -3.97002,10.257783 -5.78302,15.696801 -0.17418,0.522502 0.2463,1.159677 0,1.652294 -0.44405,0.888082 -1.28355,1.556554 -1.6523,2.478444 -0.20455,0.511371 0,1.10153 0,1.652294 -0.55078,1.376913 -0.88931,2.859093 -1.65229,4.130736 -0.14169,0.236141 -0.63143,-0.194723 -0.82617,0 -0.38944,0.389451 0.28337,1.180018 0,1.652297 -2.14346,3.572446 -3.9198,7.013461 -5.78302,10.739916 -0.77891,1.557798 -0.7562,3.463414 -1.6523,4.956884 -0.40073,0.667901 -1.36302,0.929105 -1.65229,1.652294 -0.30681,0.767058 0.36946,1.739513 0,2.478444 -1.56951,3.139009 -5.97429,5.516848 -8.26148,8.261474 -0.88146,1.057773 -1.42066,2.42311 -2.47844,3.304588 -1.7523,1.460257 -6.02421,2.639232 -8.26148,4.130739 -5.35212,3.568091 -10.71546,7.58101 -15.6968,11.566064 -3.11483,2.491869 -2.56318,3.018629 -4.95686,6.609179 -0.46567,0.6985 -2.32228,1.41803 -2.47846,1.65229 -0.26141,0.39211 -0.97372,3.58788 -1.6523,4.13074 -3.20884,2.56707 -10.40011,6.60493 -14.0445,8.26148 -9.23372,4.19714 -20.17572,5.07294 -29.7413,8.26147 -0.79505,0.26501 -6.83795,2.17975 -7.43533,2.47844 -0.69667,0.34834 -0.95563,1.30396 -1.6523,1.6523 -2.8705,1.43525 -6.23389,1.33695 -9.08762,2.47844 -0.92189,0.36876 -1.52374,1.37952 -2.47844,1.65229 -1.05915,0.30262 -2.21157,-0.13662 -3.30459,0 -3.17268,-2.98083 -2.67655,1.36146 -4.13074,1.6523 -3.29822,0.65964 -17.34575,0.8228 -19.00139,2.47844 -1.50241,1.50241 -3.52407,4.40199 -4.13074,7.43533 -0.16202,0.8101 0.45827,1.79104 0,2.47844 -0.66091,0.99138 -1.7349,-0.49569 -2.47844,0 -4.95269,3.30179 -4.48992,8.33331 -12.39221,9.91377 -2.43382,0.48676 -2.65967,-0.25185 -4.95688,-0.82615 -3.87133,-0.96783 -8.56179,1.09441 -12.39221,0 -1.67466,-0.47847 -3.24904,-1.31072 -4.95689,-1.65229 -3.16294,-0.63259 -6.7654,0.69963 -9.91377,0 -4.14085,-0.92019 -8.19206,-2.77958 -12.39221,-3.30459 -3.47061,-0.43383 -7.30065,0.62532 -10.73992,0 -4.68748,-0.85227 -9.29498,-2.62609 -14.044499,-3.30459 -0.817846,-0.11684 -1.694691,0.26125 -2.478445,0 -1.752523,-0.58418 -3.227181,-1.82981 -4.956884,-2.47845 -0.34785,-0.13044 -1.891442,0.0652 -2.478442,0 -5.979054,-0.66434 -8.608681,-1.23483 -14.870652,-1.65229 -4.112307,-0.27415 -8.282754,0.31611 -12.392212,0 -15.32772,-1.17905 -30.836002,-0.82615 -46.264255,-0.82615 -7.7490474,0 -18.0168882,-1.26561 -25.6105701,0 -0.6073959,0.10123 -1.0549059,0.6768 -1.6522949,0.82615 -2.04216,0.51054 -4.622537,-0.66221 -6.609179,0 -3.529929,1.17664 -6.603885,2.80678 -9.91377,4.13074 -3.059827,1.22393 -6.201198,1.5163 -9.08762,2.47844 -3.638804,1.21293 -7.101115,2.9178 -10.739916,4.13074 -3.433228,1.14441 -10.485075,1.1118 -13.218358,2.47844 -0.246312,0.12315 0.229131,0.67339 0,0.82615 -0.944737,0.62982 -2.396247,0.14489 -3.304591,0.82614 -4.203927,3.15295 -3.977454,2.97812 -9.91377,4.95689 -3.256775,1.08559 -7.561355,-0.29639 -10.739917,-0.82615 -7.456908,-1.24282 -16.308235,0 -23.958275,0 -5.41993,0 -12.09833,-1.05015 -17.34909,0 -1.4697,0.29394 -2.89888,1.24167 -4.13074,1.65229 -2.11384,0.70462 -13.28633,0.40175 -15.6968,0 -8.70887,-1.45147 -17.03066,-13.88528 -25.61057,-18.17524 -17.62751,-8.81375 -54.01774,-6.60918 -73.52712,-6.60918 -19.01351,0 -39.06527,2.08501 -57.83031,0 -12.59083,-1.39898 -24.74402,-6.00099 -37.17663,-8.26147 -21.86795,-3.97599 -2.67692,-0.39657 -19.0014,-1.6523 -3.84574,-0.29582 -7.69654,-2.07112 -11.56607,-2.47844 -5.04145,-0.53068 -10.65509,-0.21181 -15.69681,-1.65229 -1.49526,0.49794 -1.53648,-1.33831 -2.47843,-1.6523 -2.05872,-0.68624 -4.42928,-0.56234 -6.60918,-1.65229 -1.97229,-0.98615 -4.5674,-4.00091 -7.43532,-4.95689 -1.98276,-0.66092 -4.62643,0.66092 -6.60919,0 -0.36946,-0.12315 -0.55076,-0.55076 -0.82613,-0.82614 -0.82617,-0.27539 -1.62452,-0.65537 -2.47846,-0.82615 -2.44526,-0.48906 -4.99004,-0.3371 -7.43532,-0.82615 -1.65902,0.18958 -2.69203,-1.29262 -4.13073,-1.65229 -2.22258,-0.55565 -6.35204,0.12857 -8.26148,-0.82615 -0.2463,-0.12316 0.22029,-0.66092 0,-0.82615 -2.74347,-2.05759 -5.98575,-2.93836 -8.26149,-5.78303 -2.24297,-2.80375 -4.34387,-5.79812 -5.78302,-9.087623 -0.91019,-2.080467 -0.80891,-4.500737 -1.6523,-6.609178 -1.20208,-3.005193 -4.11345,-6.540061 -4.95689,-9.913771 -0.36933,-1.477306 0.15725,-4.525166 0,-5.783032 -0.34462,-2.756972 -1.35077,-5.547887 -1.65229,-8.261474 -0.65305,-5.877497 0,-12.219012 0,-18.175243"
           id="path484" />
      </g>
    </clipPath>
    <clipPath
       clipPathUnits="userSpaceOnUse"
       id="clipPath960">
      <path
         style="fill:none;stroke:#000000;stroke-width:0.264583px;stroke-linecap:butt;stroke-linejoin:miter;stroke-opacity:1"
         d="M -70.222531,-202.40612 -399.85535,-46.264256 -465.12099,68.570237 c 0.24405,14.003123 4.50204,27.85387 9.91375,40.481223 0.63254,1.47591 1.97067,2.6074 2.47846,4.13074 0.99523,2.98568 0.93033,5.99138 2.47843,9.08762 3.78095,7.5619 -0.68482,-7.01138 3.30459,4.95688 0.94719,2.84156 1.19259,6.97561 3.3046,9.08763 0.0513,2.32621 1.86266,0.21037 2.47843,0.82614 0.19473,0.19473 -0.2463,0.703 0,0.82615 2.07624,1.03812 15.50863,0 16.52294,0 15.33612,0 30.95294,-0.90067 46.26427,0 18.3012,1.07654 2.27195,0.49422 27.26285,4.95688 4.61018,0.82325 17.79532,0.50119 22.30599,0 1.79472,-0.19941 3.90366,-1.41737 5.78305,-1.65229 9.63528,-1.20441 19.13628,-1.6523 28.91515,-1.6523 1.71712,0 5.14173,-0.58697 6.60919,0 1.74101,0.69641 3.23881,2.74287 6.60918,3.30459 3.21607,0.53602 6.68502,-0.46124 9.91376,0 3.14309,0.44902 2.41839,1.05362 6.60917,1.6523 3.72635,0.53233 8.91884,0 12.39222,0 2.88791,0 8.43108,-0.78375 11.56606,0 2.92388,0.73097 13.47702,2.9224 15.6968,2.47844 5.93439,-1.18688 11.22111,-0.55709 17.3491,0 2.88111,0.26192 6.23241,-0.57104 9.08762,0 2.437,0.4874 7.95768,1.10918 9.91377,2.47844 2.31741,1.62219 5.56737,6.60918 9.08762,6.60918 l 52.04729,24.78443 470.07788,-11.56607 -4.13075,-375.07093 z"
         id="path962" />
    </clipPath>
    <clipPath
       clipPathUnits="userSpaceOnUse"
       id="clipPath960-6">
      <path
         style="fill:none;stroke:#000000;stroke-width:0.264583px;stroke-linecap:butt;stroke-linejoin:miter;stroke-opacity:1"
         d="M -70.222531,-202.40612 -399.85535,-46.264256 -465.12099,68.570237 c 0.24405,14.003123 4.50204,27.85387 9.91375,40.481223 0.63254,1.47591 1.97067,2.6074 2.47846,4.13074 0.99523,2.98568 0.93033,5.99138 2.47843,9.08762 3.78095,7.5619 -0.68482,-7.01138 3.30459,4.95688 0.94719,2.84156 1.19259,6.97561 3.3046,9.08763 0.0513,2.32621 1.86266,0.21037 2.47843,0.82614 0.19473,0.19473 -0.2463,0.703 0,0.82615 2.07624,1.03812 15.50863,0 16.52294,0 15.33612,0 30.95294,-0.90067 46.26427,0 18.3012,1.07654 2.27195,0.49422 27.26285,4.95688 4.61018,0.82325 17.79532,0.50119 22.30599,0 1.79472,-0.19941 3.90366,-1.41737 5.78305,-1.65229 9.63528,-1.20441 19.13628,-1.6523 28.91515,-1.6523 1.71712,0 5.14173,-0.58697 6.60919,0 1.74101,0.69641 3.23881,2.74287 6.60918,3.30459 3.21607,0.53602 6.68502,-0.46124 9.91376,0 3.14309,0.44902 2.41839,1.05362 6.60917,1.6523 3.72635,0.53233 8.91884,0 12.39222,0 2.88791,0 8.43108,-0.78375 11.56606,0 2.92388,0.73097 13.47702,2.9224 15.6968,2.47844 5.93439,-1.18688 11.22111,-0.55709 17.3491,0 2.88111,0.26192 6.23241,-0.57104 9.08762,0 2.437,0.4874 7.95768,1.10918 9.91377,2.47844 2.31741,1.62219 5.56737,6.60918 9.08762,6.60918 l 52.04729,24.78443 470.07788,-11.56607 -4.13075,-375.07093 z"
         id="path962-6" />
    </clipPath>
    <clipPath
       clipPathUnits="userSpaceOnUse"
       id="clipPath960-5">
      <path
         style="fill:none;stroke:#000000;stroke-width:0.264583px;stroke-linecap:butt;stroke-linejoin:miter;stroke-opacity:1"
         d="M -70.222531,-202.40612 -399.85535,-46.264256 -465.12099,68.570237 c 0.24405,14.003123 4.50204,27.85387 9.91375,40.481223 0.63254,1.47591 1.97067,2.6074 2.47846,4.13074 0.99523,2.98568 0.93033,5.99138 2.47843,9.08762 3.78095,7.5619 -0.68482,-7.01138 3.30459,4.95688 0.94719,2.84156 1.19259,6.97561 3.3046,9.08763 0.0513,2.32621 1.86266,0.21037 2.47843,0.82614 0.19473,0.19473 -0.2463,0.703 0,0.82615 2.07624,1.03812 15.50863,0 16.52294,0 15.33612,0 30.95294,-0.90067 46.26427,0 18.3012,1.07654 2.27195,0.49422 27.26285,4.95688 4.61018,0.82325 17.79532,0.50119 22.30599,0 1.79472,-0.19941 3.90366,-1.41737 5.78305,-1.65229 9.63528,-1.20441 19.13628,-1.6523 28.91515,-1.6523 1.71712,0 5.14173,-0.58697 6.60919,0 1.74101,0.69641 3.23881,2.74287 6.60918,3.30459 3.21607,0.53602 6.68502,-0.46124 9.91376,0 3.14309,0.44902 2.41839,1.05362 6.60917,1.6523 3.72635,0.53233 8.91884,0 12.39222,0 2.88791,0 8.43108,-0.78375 11.56606,0 2.92388,0.73097 13.47702,2.9224 15.6968,2.47844 5.93439,-1.18688 11.22111,-0.55709 17.3491,0 2.88111,0.26192 6.23241,-0.57104 9.08762,0 2.437,0.4874 7.95768,1.10918 9.91377,2.47844 2.31741,1.62219 5.56737,6.60918 9.08762,6.60918 l 52.04729,24.78443 470.07788,-11.56607 -4.13075,-375.07093 z"
         id="path962-9" />
    </clipPath>
    <clipPath
       clipPathUnits="userSpaceOnUse"
       id="clipPath32962">
      <path
         id="path32964"
         style="fill:none;fill-opacity:1;stroke:#000000;stroke-width:0.303119;stroke-opacity:1"
         d="M 0.15185355,-3.2860021 V 101.02104 A 193.39729,75.358302 0 0 0 78.30046,107.48781 193.39729,75.358302 0 0 0 211.73851,86.625581 V -3.2860021 Z" />
    </clipPath>
  </defs>
  <g
     inkscape:label="Ebene 1"
     inkscape:groupmode="layer"
     id="layer1"
     transform="translate(-162.63544,0.45600497)">
    <path
       style="fill:#ff7f2a;stroke-width:0.00933005"
       d="m 181.1643,20.129053 c -0.348,-0.04333 -0.73845,-0.217234 -1.10561,-0.492491 -0.57891,-0.434009 -1.16257,-1.08969 -1.73719,-1.951516 -0.48303,-0.72448 -0.64983,-1.020585 -0.74859,-1.328894 -0.0276,-0.08624 -0.0287,-0.09561 -0.0287,-0.257334 0,-0.121768 -0.003,-0.167824 -0.0109,-0.167824 -0.0209,0 -0.12905,0.02059 -0.12905,0.02459 0,0.0021 0.0126,0.0464 0.0279,0.09823 0.0258,0.08695 0.028,0.105453 0.0282,0.239954 1.7e-4,0.144109 4.8e-4,0.146297 0.028,0.19625 0.0153,0.02781 0.026,0.05233 0.0237,0.05462 -0.005,0.005 -0.0566,0.0108 -0.37382,0.04325 -0.86936,0.08913 -1.75285,0.144975 -2.9203,0.184575 -0.46196,0.01566 -2.42482,0.01573 -2.99495,9.3e-5 -1.26783,-0.03475 -1.9777,-0.06427 -4.19853,-0.174516 -0.80358,-0.03989 -1.81443,-0.08739 -2.17857,-0.102393 -0.19243,-0.0079 -0.44562,-0.01866 -0.56264,-0.02381 l -0.21276,-0.0094 -0.11476,-0.04969 c -0.38897,-0.16831 -0.80675,-0.51198 -1.03153,-0.84855 -0.0994,-0.14885 -0.1441,-0.271175 -0.20007,-0.547576 -0.11173,-0.551809 -0.11784,-1.079217 -0.0186,-1.604766 0.0995,-0.526629 0.33798,-1.124529 0.66438,-1.665414 0.14774,-0.244843 0.4764,-0.559315 0.95348,-0.912322 0.0744,-0.05505 0.22136,-0.163691 0.32655,-0.241405 0.1052,-0.07771 0.23013,-0.172521 0.27763,-0.210691 0.0759,-0.06098 0.13309,-0.09284 0.47116,-0.262417 1.66619,-0.8357884 2.92828,-1.2727141 4.12617,-1.4284413 0.33614,-0.043683 0.46825,-0.051261 0.90035,-0.051404 0.22836,-1.001e-4 0.42568,0.00286 0.43851,0.00643 0.0128,0.00357 0.0299,0.018374 0.0379,0.032601 0.008,0.014227 0.0258,0.045112 0.0396,0.068634 l 0.025,0.042682 -0.0822,0.1299181 c -0.0452,0.071494 -0.12808,0.202577 -0.18411,0.2913791 l -0.10188,0.1614611 -0.11205,0.072595 c -0.38815,0.2514857 -0.95037,0.5498569 -1.78213,0.945759 -0.12315,0.05863 -0.34148,0.162569 -0.48516,0.230996 -0.31724,0.15108 -0.83835,0.413719 -1.05429,0.531383 -1.06095,0.578054 -1.75694,1.130177 -2.2569,1.790348 -0.20316,0.268273 -0.37416,0.565007 -0.51311,0.890402 -0.0424,0.09934 -0.043,0.102129 -0.043,0.203407 v 0.102693 l 0.0313,0.01308 c 0.0172,0.0072 0.13164,0.04711 0.25425,0.0887 1.2211,0.414134 2.51967,0.655046 4.14621,0.769214 0.70457,0.04947 1.46807,0.07618 2.80835,0.0983 1.69676,0.02803 2.4312,0.05548 3.26086,0.121882 l 0.24257,0.01945 0.46913,-0.01802 c 0.25802,-0.0099 0.47137,-0.0203 0.47411,-0.02302 0.003,-0.0029 -0.0121,-0.0632 -0.033,-0.134315 -0.0209,-0.07114 -0.038,-0.136488 -0.038,-0.145253 0,-0.0087 0.0395,-0.117879 0.0877,-0.242485 0.36334,-0.938288 0.70332,-1.571599 1.10456,-2.057613 0.12075,-0.146268 0.32038,-0.3462 0.44579,-0.44647 0.27011,-0.21596 0.57545,-0.37652 0.80479,-0.423177 0.62269,-0.12668 1.28014,-0.06742 2.00357,0.180528 0.68005,0.233098 1.39734,0.614187 2.51845,1.337995 1.34197,0.866402 1.23039,0.797789 1.34402,0.826487 1.02993,0.260115 2.16396,0.413683 3.49362,0.473101 0.55674,0.02488 1.84324,0.02481 2.60308,-10e-5 0.15652,-0.005 0.51549,-0.01594 0.79772,-0.02402 0.4953,-0.01423 0.51681,-0.01558 0.61812,-0.03939 0.10004,-0.02352 0.10496,-0.02581 0.10498,-0.04861 1e-5,-0.01315 -0.0129,-0.207732 -0.0286,-0.432372 l -0.0287,-0.408435 0.12175,-0.235336 c 0.26132,-0.505109 0.44192,-0.790018 0.68738,-1.084378 0.1497,-0.17952 0.27966,-0.309231 0.36691,-0.366211 0.36417,-0.237831 0.70738,-0.372582 1.11576,-0.438084 0.14674,-0.02352 0.5689,-0.02331 0.72775,3.36e-4 0.5041,0.07512 0.95814,0.230209 1.59153,0.543601 0.23033,0.113968 0.19722,0.09286 1.20748,0.770121 0.90968,0.609833 1.31413,0.862298 1.8147,1.132737 0.25459,0.137546 0.67309,0.330808 0.71633,0.330808 0.0128,0 0.1791,-0.03146 0.36956,-0.06992 0.25062,-0.05062 0.38623,-0.08292 0.4909,-0.117014 0.12713,-0.04139 0.40337,-0.124892 1.16159,-0.35104 1.05042,-0.313306 1.67631,-0.593232 2.35169,-1.051777 0.14859,-0.100892 0.16803,-0.117314 0.21498,-0.181594 0.20591,-0.281949 0.30237,-0.59592 0.30229,-0.983851 0,-0.193197 -0.009,-0.29238 -0.0653,-0.692279 -0.0251,-0.179599 -0.0503,-0.369751 -0.056,-0.422542 -0.009,-0.08063 -0.0175,-0.112731 -0.0552,-0.200596 -0.82154,-1.9157766 -2.44147,-3.5243529 -4.85241,-4.8184147 -1.30297,-0.699357 -2.78734,-1.2975078 -4.80965,-1.9381186 -0.65374,-0.2070882 -1.33016,-0.3720024 -2.19916,-0.5361587 -1.89124,-0.3572602 -3.90068,-0.4728509 -5.92732,-0.3409596 -3.5073,0.2282571 -7.246,1.1893449 -11.37801,2.9248866 -0.97601,0.4099511 -2.01093,0.8778192 -2.97163,1.3434209 -0.3213,0.1557273 -0.38809,0.1864767 -0.40498,0.1864767 -0.009,0 -0.14014,0.050689 -0.29102,0.1127095 -0.62824,0.258106 -0.87875,0.3268113 -1.18401,0.3247023 -0.17901,-0.00143 -0.19323,-0.005 -0.26052,-0.065917 l -0.0584,-0.052977 0.0906,-0.1412069 c 0.28128,-0.4382697 0.63778,-0.9023987 1.02486,-1.3342626 0.15622,-0.1743085 0.64304,-0.6611438 0.81757,-0.8176146 1.18495,-1.0623298 2.57334,-1.9247707 4.59039,-2.8514412 0.23014,-0.1057319 0.79373,-0.3564454 1.00765,-0.4482503 1.50783,-0.647131 1.89679,-0.81648493 2.35188,-1.0240021 0.15714,-0.071658 0.22467,-0.0972527 0.30788,-0.11666318 1.06968,-0.24958398 1.923,-0.42355638 2.8543,-0.58192889 2.50642,-0.42623739 4.84944,-0.57338541 7.06286,-0.44356027 2.61494,0.15338226 5.09638,0.70261715 7.47596,1.65472534 0.42513,0.1700974 0.96343,0.4042102 1.29787,0.564463 0.0815,0.039036 0.14982,0.070993 0.15182,0.070993 0.008,0 0.69933,0.3480521 0.87091,0.4383627 0.96027,0.5054234 1.92677,1.0960101 2.89206,1.7672345 0.23061,0.16036 0.27131,0.1927466 0.40586,0.3230078 0.55779,0.5400265 1.17982,1.222697 1.75207,1.9228834 0.0848,0.1037871 0.1971,0.2762367 0.40328,0.6193986 0.33775,0.5621466 0.5997,1.0799959 0.80702,1.5954358 0.0475,0.1180287 0.1049,0.2516144 0.12763,0.2968698 0.032,0.063772 0.0591,0.1476341 0.12054,0.3732034 0.34446,1.2650643 0.45513,1.9290313 0.43957,2.6374323 -0.012,0.546061 -0.0972,0.983294 -0.28367,1.455495 -0.0678,0.171884 -0.188,0.418058 -0.27991,0.57365 -0.0726,0.12294 -0.22467,0.35217 -0.26117,0.393722 -0.0562,0.06399 -0.55879,0.481187 -0.60455,0.501834 -0.0257,0.01158 -0.20829,0.09352 -0.40585,0.182094 -0.19757,0.08857 -0.43268,0.194427 -0.52249,0.235236 l -0.16327,0.0742 -0.19594,0.02223 c -0.10776,0.01223 -0.44994,0.05369 -0.7604,0.09219 -1.04646,0.129725 -1.36556,0.15577 -1.908,0.155756 -0.31653,-7e-6 -0.56003,-0.0133 -0.79771,-0.04361 -0.79391,-0.101249 -1.50929,-0.367699 -2.15764,-0.803623 -0.093,-0.06249 -0.1206,-0.08719 -0.18123,-0.16189 -0.24926,-0.307144 -0.58026,-0.629987 -0.8614,-0.840178 -0.42442,-0.317324 -0.86696,-0.511701 -1.24179,-0.545453 l -0.0709,-0.0064 -0.0897,0.08746 -0.0897,0.08746 0.0131,0.119959 c 0.007,0.06599 0.0144,0.121289 0.0161,0.122919 0.001,0.0014 0.0648,0.01044 0.14051,0.01952 0.11131,0.01344 0.13747,0.0193 0.13717,0.03103 -2e-4,0.0079 -0.01,0.05855 -0.0214,0.112438 l -0.0211,0.09796 -0.0695,0.0361 -0.0695,0.03611 -0.098,-0.03039 c -0.1361,-0.04218 -0.127,-0.04189 -0.21854,-0.0075 -0.0744,0.02795 -0.0928,0.04025 -0.18625,0.124091 -0.19823,0.177898 -0.17812,0.149086 -0.21172,0.303469 -0.0292,0.134286 -0.0294,0.136181 -0.0187,0.256576 0.0541,0.609997 0.21163,1.192584 0.4807,1.777373 0.10309,0.224075 0.32326,0.629336 0.38978,0.717495 0.20216,0.267893 0.47315,0.437061 0.76387,0.476869 0.0733,0.01001 0.0734,0.01001 0.20892,-0.03289 0.15521,-0.04912 0.14511,-0.03932 0.1997,-0.194148 0.0749,-0.212622 0.0986,-0.373497 0.0914,-0.62213 -0.008,-0.280877 -0.0457,-0.474824 -0.18282,-0.943193 -0.15338,-0.523719 -0.20331,-0.734231 -0.22037,-0.929166 -0.003,-0.03496 -0.008,-0.07362 -0.0102,-0.08583 -0.004,-0.01866 0.0196,-0.04654 0.14716,-0.174937 0.0834,-0.08401 0.15684,-0.152739 0.1631,-0.152739 0.006,0 0.14831,0.04411 0.3157,0.09797 0.16738,0.05391 0.30637,0.09796 0.30886,0.09796 0.008,0 0.19712,0.293252 0.25813,0.401193 0.53717,0.9504 0.60364,1.906612 0.20305,2.920919 -0.0896,0.226942 -0.14106,0.327634 -0.2179,0.426624 -0.24593,0.316802 -0.60759,0.606186 -0.96618,0.773066 -0.14372,0.06692 -0.33485,0.09808 -0.59805,0.09762 -0.50238,-7.15e-4 -0.96488,-0.155542 -1.72186,-0.575738 -0.12479,-0.06928 -0.15436,-0.09077 -0.2659,-0.193368 -0.54913,-0.505088 -0.93174,-1.00204 -1.19732,-1.555114 -0.37862,-0.788488 -0.48072,-1.6427 -0.31722,-2.653876 l 0.024,-0.148764 0.25263,-0.353693 c 0.17525,-0.245366 0.26323,-0.360713 0.28725,-0.376599 0.0508,-0.0336 0.24799,-0.119902 0.35712,-0.156285 0.27128,-0.09044 0.58693,-0.135959 0.94335,-0.136059 0.0921,0 0.16349,-0.0036 0.15861,-0.0079 -0.005,-0.0043 -0.0593,-0.01909 -0.12082,-0.03296 -0.47679,-0.107098 -0.47213,-0.105839 -0.50318,-0.135945 -0.0162,-0.01573 -0.0325,-0.0286 -0.0363,-0.0286 -0.004,0 -0.13993,0.04583 -0.30278,0.101821 -0.28051,0.09646 -0.30724,0.10772 -0.50783,0.213916 -0.12371,0.06549 -0.25753,0.144696 -0.32188,0.190509 -0.0606,0.04311 -0.15091,0.107455 -0.20072,0.142952 l -0.0906,0.06456 -0.1964,0.29682 -0.1964,0.29682 -0.014,0.08024 c -0.039,0.223804 -0.024,0.444447 0.0519,0.762944 0.011,0.04618 0.07,0.253637 0.13108,0.461011 0.061,0.207375 0.11105,0.383778 0.11105,0.392007 0,0.01301 -0.11705,0.133371 -0.26591,0.273362 l -0.0466,0.0439 -0.098,-0.0138 c -0.86089,-0.121239 -1.86807,-0.205773 -2.9343,-0.246288 -0.13855,-0.005 -0.30859,-0.0118 -0.37786,-0.01451 -0.26788,-0.01044 -0.90647,-0.02402 -1.97331,-0.04182 -1.71649,-0.02867 -2.26643,-0.04561 -3.07423,-0.09438 l -0.31254,-0.01887 -0.20528,-0.20267 c -0.67534,-0.666756 -1.34626,-1.171836 -2.12728,-1.601455 -0.75857,-0.417265 -1.6159,-0.723115 -2.38053,-0.849229 l -0.0947,-0.01559 -0.17124,0.03861 c -0.0942,0.02123 -0.18036,0.0424 -0.1915,0.04697 -0.021,0.0087 -0.0416,0.02188 -0.40427,0.258778 -0.21433,0.140027 -0.21997,0.144517 -0.25101,0.199946 -0.0269,0.04804 -0.029,0.05591 -0.014,0.05133 0.01,-0.0029 0.0927,-0.02238 0.18422,-0.04304 l 0.16647,-0.03768 h 0.29677 c 0.26331,0 0.30926,-0.0021 0.40734,-0.02009 0.13633,-0.02474 0.45109,-0.02967 0.58639,-0.0092 0.18317,0.02774 0.40886,0.08662 0.60179,0.156929 0.0749,0.02731 0.0955,0.03954 0.13287,0.07883 0.0894,0.09403 0.14684,0.213809 0.2175,0.453498 0.0239,0.08088 0.0476,0.15502 0.0528,0.164764 0.0114,0.02145 0.071,0.02617 -0.67176,-0.05348 l -0.5438,-0.05834 -0.0435,0.02374 c -0.0528,0.02874 -0.10308,0.09979 -0.17542,0.247647 -0.11082,0.226534 -0.1549,0.43403 -0.15483,0.728941 0,0.169304 0.0104,0.282342 0.0438,0.4793 0.0383,0.226077 0.0554,0.28631 0.13744,0.485162 0.3137,0.760434 0.53415,1.139221 0.91906,1.579171 0.0723,0.08264 0.15131,0.155963 0.31926,0.296298 l 0.22318,0.186477 h 0.27703 0.27703 l 0.0593,-0.03968 c 0.057,-0.03818 0.0613,-0.0439 0.11419,-0.151617 0.12874,-0.262281 0.18768,-0.559401 0.1749,-0.881687 -0.009,-0.224132 -0.0393,-0.434838 -0.12214,-0.846312 -0.0441,-0.219013 -0.0799,-0.419224 -0.10393,-0.581192 -0.0188,-0.126966 -0.028,-0.492612 -0.0149,-0.597937 0.009,-0.07449 0.0157,-0.09102 0.0921,-0.235278 l 0.0822,-0.155162 0.0793,-1.43e-4 c 0.31889,-5.58e-4 0.67004,0.226756 1.12346,0.727282 0.28147,0.310711 0.25987,0.280755 0.30735,0.426123 0.23516,0.720019 0.30481,1.315582 0.21967,1.8784 -0.0802,0.530189 -0.29627,1.022966 -0.66276,1.511631 -0.24834,0.331123 -0.5141,0.527437 -0.87638,0.647382 -0.15407,0.05098 -0.26923,0.07529 -0.45453,0.09585 -0.12163,0.01351 -0.15472,0.01408 -0.22502,0.0043 -0.0708,-0.01001 -0.0935,-0.0095 -0.16063,0.0036 -0.0961,0.01837 -0.29664,0.02545 -0.39077,0.01373 z m 4.15488,-8.537138 c -0.26655,-0.02581 -0.45522,-0.157322 -0.56801,-0.395931 -0.0829,-0.175288 -0.0969,-0.305835 -0.0972,-0.900347 -1.5e-4,-0.387438 -0.015,-0.6563467 -0.0422,-0.7634655 -0.0279,-0.1098785 -0.13546,-0.2341914 -0.25248,-0.2918009 -0.0525,-0.025881 -0.0753,-0.031314 -0.1438,-0.034603 -0.12076,-0.00572 -0.21695,0.027239 -0.36553,0.1253925 -0.0633,0.041824 -0.31013,0.2852307 -0.41979,0.414012 -0.3175,0.3728459 -0.68524,0.9313819 -0.97366,1.4788089 -0.0297,0.05648 -0.0606,0.107883 -0.0685,0.114296 -0.0195,0.01573 -1.2424,0.01716 -1.2424,0.0014 0,-0.0082 0.56868,-2.2784422 0.84639,-3.3789781 l 0.063,-0.2495769 h 0.77788 c 0.73712,0 0.77753,7.15e-4 0.77129,0.016301 -0.004,0.00901 -0.0141,0.052047 -0.0232,0.09563 -0.009,0.043611 -0.0316,0.1275874 -0.05,0.1866054 -0.0416,0.1340218 -0.0623,0.2248615 -0.15049,0.6626594 -0.0706,0.3506186 -0.0919,0.478299 -0.0787,0.4735017 0.0117,-0.00429 0.27556,-0.2552963 0.40141,-0.3819399 0.0648,-0.065202 0.2061,-0.2122787 0.31398,-0.3267828 0.19838,-0.2105628 0.31112,-0.3191829 0.46385,-0.446899 0.36677,-0.306693 0.5464,-0.4018581 0.78549,-0.4161282 0.21977,-0.013155 0.40556,0.055693 0.55411,0.2051507 0.10541,0.1060679 0.15675,0.1972508 0.19956,0.3543936 0.0585,0.214931 0.0563,0.1743298 0.0564,1.0049776 1.3e-4,0.846355 -0.001,0.8194805 0.0659,1.0421765 0.0394,0.129989 0.0656,0.183145 0.11273,0.228586 0.0884,0.08529 0.25899,0.112867 0.41474,0.06706 0.0276,-0.0082 0.11161,-0.04561 0.18662,-0.08335 l 0.13639,-0.06856 0.0829,0.12056 c 0.0455,0.06628 0.0856,0.120667 0.089,0.120796 0.004,1.28e-4 0.11027,-0.141465 0.23757,-0.314651 0.12729,-0.173193 0.27176,-0.3694716 0.32104,-0.4361822 0.11146,-0.1508872 0.30563,-0.4149844 1.39939,-1.9033299 0.47892,-0.6517066 0.89863,-1.2227041 0.93271,-1.268889 0.0341,-0.046185 0.19533,-0.2655556 0.35836,-0.487493 l 0.29641,-0.4035311 h 1.09485 1.09486 l 0.006,0.048973 c 0.003,0.026953 0.0265,0.386966 0.0521,0.8000486 0.0256,0.4130897 0.0528,0.8455399 0.0604,0.961002 0.008,0.1154549 0.0222,0.3442772 0.0326,0.5084835 0.0103,0.1642136 0.0608,0.961717 0.11208,1.7722465 0.0513,0.8105216 0.0933,1.4812386 0.0933,1.4904756 0,0.01609 -0.0392,0.0168 -0.89132,0.0168 -0.70488,0 -0.89207,-0.0021 -0.89496,-0.01165 -0.002,-0.0064 -0.0252,-0.429418 -0.0516,-0.940004 -0.0263,-0.5105848 -0.0727,-1.4048762 -0.10311,-1.9872984 -0.0304,-0.5824293 -0.0596,-1.1492302 -0.0649,-1.259559 -0.0183,-0.3839347 -0.0184,-0.3840848 -0.0776,-0.420232 -0.0337,-0.02059 -0.0958,-0.02395 -0.13242,-0.00729 -0.033,0.015014 -0.14702,0.1628766 -0.34593,0.4485219 -0.092,0.1321415 -0.31789,0.4554282 -0.50194,0.7184172 -0.91095,1.3016974 -0.87361,1.2455321 -0.87361,1.314123 0,0.051475 0.0222,0.084255 0.0751,0.111294 0.0351,0.017873 0.0583,0.018374 0.84448,0.018374 0.64284,0 0.80754,0.00214 0.80408,0.011653 -0.002,0.00643 -0.0459,0.1473053 -0.0966,0.3130917 l -0.0923,0.3014311 -0.042,-0.00751 c -0.0671,-0.012011 -0.90134,-0.00815 -1.05429,0.005 -0.63638,0.054407 -0.90728,0.1456325 -1.22963,0.4141335 -0.16222,0.13513 -0.26512,0.248712 -0.45195,0.498904 -0.0583,0.07798 -0.16996,0.217576 -0.24829,0.310217 l -0.14242,0.168446 h -0.54063 c -0.29736,0 -0.54065,-0.0029 -0.54065,-0.0057 0,-0.0043 0.18391,-0.260244 0.23697,-0.32965 0.0127,-0.01666 0.004,-0.01187 -0.0729,0.03982 -0.20323,0.136567 -0.66296,0.377507 -0.8545,0.447821 -0.12901,0.04733 -0.27184,0.07973 -0.39786,0.09017 -0.0608,0.005 -0.11273,0.0087 -0.11529,0.0081 -0.003,-6.15e-4 -0.039,-0.0043 -0.081,-0.0085 z m -10.78501,-0.258313 c 0.003,-0.009 0.12285,-0.486557 0.26713,-1.061294 0.14428,-0.574729 0.31009,-1.2338996 0.36845,-1.4648166 0.0583,-0.230917 0.22212,-0.8816942 0.3639,-1.4461572 0.2724,-1.084407 0.39401,-1.5662092 0.40214,-1.5931122 0.005,-0.015514 0.13722,-0.0163 2.61269,-0.0163 2.47928,0 2.6075,7.149e-4 2.6027,0.0163 -0.006,0.020304 -0.15482,0.6448718 -0.15482,0.6509917 0,0.00214 -0.7211,0.00429 -1.60243,0.005 -1.54339,1.93e-4 -1.60385,7.15e-4 -1.64074,0.017587 -0.0415,0.018874 -0.0727,0.047686 -0.0926,0.085771 -0.0197,0.037534 -0.34711,1.3461735 -0.35974,1.4377925 -0.01,0.072151 -0.009,0.083855 0.004,0.1049311 l 0.0155,0.023736 1.53305,0.00214 1.53303,0.00214 -0.0905,0.3434907 c -0.0498,0.1889146 -0.0943,0.3472799 -0.0989,0.351927 -0.005,0.005 -0.48861,0.00972 -1.15585,0.01151 -1.13632,0.00286 -1.14819,0.00357 -1.22673,0.023021 -0.12111,0.030456 -0.20781,0.062771 -0.30287,0.1128311 -0.24753,0.1303042 -0.51192,0.4042174 -0.63906,0.662066 -0.11278,0.2287293 -0.19619,0.6388659 -0.19631,0.9653059 v 0.06298 l 1.09628,0.0014 c 0.60296,6.44e-4 1.10048,0.0021 1.10562,0.0036 0.005,0.0014 0.26072,0.0029 0.56798,0.0036 l 0.55866,0.0014 -0.0887,0.354536 -0.0887,0.354544 h -2.6492 c -2.51865,0 -2.64896,-7.15e-4 -2.6444,-0.0163 z m 20.63455,0.01165 c 0,-0.0029 0.26668,-1.072203 0.59263,-2.3768745 0.37923,-1.5180082 0.60096,-2.3889855 0.61578,-2.418927 0.0282,-0.056909 0.0287,-0.069706 0.004,-0.1012349 l -0.0194,-0.024594 h -0.88105 c -0.48456,0 -0.88089,-0.00286 -0.88074,-0.00715 1.5e-4,-0.00357 0.0372,-0.1539471 0.0822,-0.333546 l 0.082,-0.326554 2.72613,-0.00214 c 2.42771,-0.00214 2.72613,-7.149e-4 2.72613,0.011725 0,0.00779 -0.0361,0.1584225 -0.0802,0.3348043 l -0.0802,0.3206914 -0.36065,0.00429 c -0.33613,0.00429 -0.37609,0.00643 -0.58761,0.034174 -0.34327,0.044755 -0.47867,0.084248 -0.62684,0.1827519 -0.16769,0.1114798 -0.2972,0.326561 -0.38325,0.6364784 -0.021,0.075819 -0.24781,0.9775599 -0.50392,2.0038641 -0.2561,1.0263043 -0.47723,1.9100923 -0.4914,1.9639773 l -0.0257,0.09797 -0.95388,0.0021 c -0.52464,0.0014 -0.95389,2.43e-4 -0.95389,-0.0021 z"
       id="path2911"
       sodipodi:nodetypes="csssssssssccssssccssssssssssssscccscsssssssccsssccccssssssssssccssscsssscssssssssscsscsssssssccccsssssscsssssssssssssssssssscscsssssccccsccsscccsssssssssssssssscssssscsssscssssscsssssscccssssscsccsscssccscsscccsccssssccsscsssscccssssssscssssscsccccssssscsssssscscssscssscsssssscccssssssccccsssssscsssssssssssscscssscsssscccsscssscscsccssscccsccccssccsccccscccssscsssccsscccsssscccc"
       inkscape:export-filename="C:\Users\robert.hoelzl\Temp\startbootstrap-landing-page\src\assets\logo_notext.png"
       inkscape:export-xdpi="96.055496"
       inkscape:export-ydpi="96.055496" />
  </g>
</svg>
